<svg width="20" height="20" viewBox="0 0 20 20" fill="none" xmlns="http://www.w3.org/2000/svg">
<path d="M5.83334 6.66669L8.28503 8.11621C9.71434 8.96127 10.2857 8.96127 11.715 8.11621L14.1667 6.66669" stroke="#E5E7EB" stroke-width="1.5" stroke-linecap="round" stroke-linejoin="round"/>
<path d="M18.3202 10.813C18.3377 9.99158 18.3377 9.17508 18.3202 8.35367C18.2657 5.79905 18.2385 4.52174 17.2959 3.57555C16.3532 2.62936 15.0414 2.5964 12.4177 2.53048C10.8006 2.48984 9.19941 2.48984 7.58234 2.53047C4.9586 2.59638 3.64672 2.62934 2.70411 3.57554C1.76151 4.52173 1.73427 5.79904 1.67979 8.35367C1.66227 9.17508 1.66228 9.99158 1.6798 10.813C1.73427 13.3677 1.76151 14.6449 2.70412 15.5912C3.64672 16.5373 4.9586 16.5703 7.58235 16.6362C8.66999 16.6635 9.75041 16.6725 10.8333 16.6631" stroke="#E5E7EB" stroke-width="1.5" stroke-linecap="round" stroke-linejoin="round"/>
<path d="M15.4167 11.6667L15.6316 12.2475C15.9134 13.0092 16.0543 13.39 16.3322 13.6679C16.61 13.9457 16.9908 14.0866 17.7525 14.3684L18.3333 14.5834L17.7525 14.7983C16.9908 15.0801 16.61 15.221 16.3322 15.4989C16.0543 15.7767 15.9134 16.1575 15.6316 16.9192L15.4167 17.5L15.2017 16.9192C14.9199 16.1575 14.779 15.7767 14.5012 15.4989C14.2233 15.221 13.8425 15.0801 13.0808 14.7983L12.5 14.5834L13.0808 14.3684C13.8425 14.0866 14.2233 13.9457 14.5012 13.6679C14.779 13.39 14.9199 13.0092 15.2017 12.2475L15.4167 11.6667Z" stroke="#E5E7EB" stroke-width="1.5" stroke-linejoin="round"/>
</svg>
