<svg width="48" height="48" viewBox="0 0 48 48" fill="none" xmlns="http://www.w3.org/2000/svg">
<path d="M4 16C4 18.6836 20.1898 26 23.9722 26C27.7544 26 43.9444 18.6836 43.9444 16C43.9444 13.3164 27.7544 6 23.9722 6C20.1898 6 4 13.3164 4 16Z" stroke="currentColor" stroke-width="3" stroke-linecap="round" stroke-linejoin="round"/>
<path d="M11.9883 22L12.4785 33.2598C12.4883 33.4852 12.5127 33.711 12.578 33.927C12.78 34.5946 13.1522 35.2012 13.72 35.6088C18.1629 38.797 29.7802 38.797 34.223 35.6088C34.7912 35.2012 35.1632 34.5946 35.3652 33.927C35.4304 33.711 35.4548 33.4852 35.4648 33.2598L35.9548 22" stroke="currentColor" stroke-width="3" stroke-linecap="round" stroke-linejoin="round"/>
<path d="M40.9468 19V33M40.9468 33C39.3628 35.8926 38.6624 37.4424 37.951 40C37.7966 40.91 37.9192 41.3686 38.5464 41.7758C38.8012 41.9412 39.1074 42 39.411 42H42.4518C42.7752 42 43.1014 41.9326 43.3676 41.749C43.9506 41.347 44.1006 40.906 43.9426 40C43.319 37.6252 42.5246 36.0016 40.9468 33Z" stroke="currentColor" stroke-width="3" stroke-linecap="round" stroke-linejoin="round"/>
</svg>
