<svg width="48" height="48" viewBox="0 0 48 48" fill="none" xmlns="http://www.w3.org/2000/svg">
<path d="M13 18H11M21 18H19M13 12H11M21 12H19" stroke="#E5E7EB" stroke-width="2.5" stroke-linecap="round"/>
<path d="M37 30H35M37 22H35" stroke="#E5E7EB" stroke-width="2.5" stroke-linecap="round"/>
<path d="M28 16V44H36C39.7712 44 41.6568 44 42.8284 42.8284C44 41.6568 44 39.7712 44 36V24C44 20.2288 44 18.3431 42.8284 17.1716C41.6568 16 39.7712 16 36 16H28ZM28 16C28 10.3431 28 7.51472 26.2426 5.75736C24.4852 4 21.6568 4 16 4C10.3431 4 7.51472 4 5.75736 5.75736C4 7.51472 4 10.3431 4 16V20" stroke="#E5E7EB" stroke-width="2.5" stroke-linecap="round" stroke-linejoin="round"/>
<path d="M16.0497 27.909C16.0497 30.1166 14.2589 31.906 12.0498 31.906C9.84075 31.906 8.04993 30.1166 8.04993 27.909C8.04993 25.7016 9.84075 23.9122 12.0498 23.9122C14.2589 23.9122 16.0497 25.7016 16.0497 27.909Z" stroke="#E5E7EB" stroke-width="2.5" stroke-linecap="round"/>
<path d="M4.13964 40.4202C6.25634 37.164 9.61772 35.9436 12.0498 35.946C14.4819 35.9486 17.7448 37.164 19.8615 40.4202C19.9983 40.6308 20.036 40.89 19.9126 41.1088C19.4175 41.986 17.8806 43.7266 16.7704 43.8446C15.4949 43.9802 12.1583 43.9993 12.0524 43.9999C11.9464 43.9993 8.5068 43.9802 7.2307 43.8446C6.12058 43.7266 4.5836 41.986 4.08858 41.1088C3.96508 40.89 4.00278 40.6308 4.13964 40.4202Z" stroke="#E5E7EB" stroke-width="2.5" stroke-linecap="round"/>
</svg>
