<svg width="14" height="14" viewBox="0 0 14 14" fill="none" xmlns="http://www.w3.org/2000/svg">
<g clip-path="url(#clip0_13_78)">
<path d="M5.83333 11.9977C3.83333 12.6728 2.16667 11.9977 1.16666 9.91669" stroke="currentColor" stroke-width="1.5" stroke-linecap="round" stroke-linejoin="round"/>
<path d="M5.83333 12.8334V10.9421C5.83333 10.5931 5.94061 10.2898 6.11356 10.0158C6.23221 9.82779 6.15096 9.56109 5.93664 9.50217C4.16146 9.01415 2.91666 8.22951 2.91666 5.62689C2.91666 4.95025 3.13836 4.3141 3.52806 3.76042C3.62505 3.62262 3.67353 3.55373 3.68519 3.49133C3.69685 3.42893 3.67658 3.34749 3.63604 3.18462C3.47105 2.52172 3.48174 1.8178 3.72938 1.18315C3.72938 1.18315 4.24108 1.01643 5.40574 1.74401C5.67164 1.91013 5.8046 1.99319 5.92171 2.01177C6.03878 2.03035 6.19535 1.99143 6.50842 1.91359C6.93659 1.80716 7.37776 1.75002 7.875 1.75002C8.37223 1.75002 8.81341 1.80716 9.24157 1.91359C9.55465 1.99143 9.71121 2.03035 9.82829 2.01177C9.94542 1.99319 10.0784 1.91013 10.3442 1.74401C11.5089 1.01643 12.0206 1.18315 12.0206 1.18315C12.2683 1.8178 12.2789 2.52172 12.114 3.18462C12.0734 3.34749 12.0531 3.42893 12.0648 3.49133C12.0765 3.55373 12.1249 3.62263 12.2219 3.76042C12.6116 4.3141 12.8333 4.95025 12.8333 5.62689C12.8333 8.22951 11.5886 9.01415 9.81336 9.50217C9.59904 9.56109 9.51778 9.82779 9.63643 10.0158C9.80939 10.2898 9.91666 10.5931 9.91666 10.9421V12.8334" stroke="currentColor" stroke-linecap="round" stroke-linejoin="round"/>
</g>
<defs>
<clipPath id="clip0_13_78">
<rect width="14" height="14" fill="white"/>
</clipPath>
</defs>
</svg>
