<svg width="11" height="11" viewBox="0 0 11 11" fill="none" xmlns="http://www.w3.org/2000/svg">
<path d="M4.09205 8.43215C4.09205 8.43215 3.68239 8.67054 4.38398 8.75098C5.23407 8.84809 5.66849 8.83416 6.60503 8.65713C6.60503 8.65713 6.85176 8.81139 7.19568 8.94511C5.09546 9.84487 2.44265 8.89295 4.09205 8.43215ZM3.83527 7.25781C3.83527 7.25781 3.37568 7.59804 4.07787 7.67074C4.98597 7.7645 5.70295 7.77215 6.94423 7.53324C6.94423 7.53324 7.1155 7.70727 7.38526 7.80231C4.8465 8.54481 2.01881 7.86075 3.83527 7.25781V7.25781Z" fill="#0074BD"/>
<path d="M5.99865 5.26558C6.51643 5.86156 5.86287 6.39738 5.86287 6.39738C5.86287 6.39738 7.17677 5.71925 6.57349 4.86967C6.00983 4.07775 5.57773 3.68442 7.91712 2.32764C7.91712 2.32772 4.24493 3.24459 5.99865 5.26558V5.26558Z" fill="#EA2D2E"/>
<path d="M8.77615 9.30085C8.77615 9.30085 9.07942 9.55093 8.44202 9.7442C7.23013 10.1113 3.39697 10.222 2.33238 9.7589C1.94987 9.59235 2.66745 9.36144 2.89321 9.31271C3.12859 9.26175 3.263 9.27103 3.263 9.27103C2.83735 8.97137 0.511881 9.8597 2.08196 10.1145C6.36345 10.8085 9.88655 9.80195 8.77615 9.30085V9.30085ZM4.28926 6.04081C4.28926 6.04081 2.33969 6.50393 3.59893 6.67228C4.13071 6.74344 5.19032 6.72711 6.178 6.64427C6.98495 6.57646 7.79474 6.43166 7.79474 6.43166C7.79474 6.43166 7.51046 6.5536 7.30455 6.69402C5.32438 7.21489 1.49999 6.97229 2.60111 6.43982C3.53198 5.98959 4.28926 6.04081 4.28926 6.04081V6.04081ZM7.78666 7.99563C9.7994 6.95003 8.8687 5.94516 8.2191 6.08052C8.06029 6.1136 7.98904 6.14239 7.98904 6.14239C7.98904 6.14239 8.04817 6.04966 8.16092 6.00979C9.44594 5.55819 10.4341 7.34208 7.74644 8.04866C7.74644 8.04848 7.7773 8.02056 7.78666 7.99563V7.99563Z" fill="#0074BD"/>
<path d="M6.57339 0.136475C6.57339 0.136475 7.68783 1.2516 5.5161 2.96579C3.77449 4.34131 5.11898 5.1254 5.5155 6.02165C4.49877 5.10444 3.75301 4.29688 4.25325 3.54536C4.98784 2.44244 7.02293 1.90747 6.57339 0.136475Z" fill="#EA2D2E"/>
<path d="M4.48712 10.8299C6.41865 10.9534 9.38556 10.7612 9.45577 9.84717C9.45577 9.84717 9.32076 10.1937 7.85931 10.4686C6.21051 10.779 4.17654 10.7428 2.97058 10.5437C2.97058 10.5438 3.21765 10.7483 4.48712 10.8299V10.8299Z" fill="#0074BD"/>
</svg>
