<svg width="20" height="20" viewBox="0 0 20 20" fill="none" xmlns="http://www.w3.org/2000/svg">
<g clip-path="url(#clip0_8_59)">
<path d="M4.16669 4.97126H6.79169M6.79169 4.97126H8.54169M6.79169 4.97126V4.16666M10 4.97126H8.54169M8.54169 4.97126C8.23399 6.0716 7.58964 7.11175 6.85419 8.02585M6.85419 8.02585C6.24519 8.78282 5.57371 9.45332 4.97919 9.99999M6.85419 8.02585C6.47919 7.5862 5.95419 6.87486 5.80419 6.55302M6.85419 8.02585L7.97919 9.19541" stroke="currentColor" stroke-width="1.5" stroke-linecap="round" stroke-linejoin="round"/>
<path d="M5.85195 14.1481C5.8973 15.5815 6.05333 16.4607 6.58999 17.1147C6.7285 17.2834 6.88326 17.4382 7.05205 17.5767C7.974 18.3333 9.34377 18.3333 12.0834 18.3333C14.8229 18.3333 16.1927 18.3333 17.1147 17.5767C17.2834 17.4382 17.4382 17.2834 17.5767 17.1147C18.3334 16.1927 18.3334 14.8229 18.3334 12.0833C18.3334 9.34374 18.3334 7.97397 17.5767 7.05201C17.4382 6.88323 17.2834 6.72847 17.1147 6.58996C16.4636 6.05562 15.5892 5.89863 14.1667 5.85251M5.85195 14.1481C4.4185 14.1027 3.5393 13.9467 2.88538 13.41C2.7166 13.2715 2.56184 13.1167 2.42332 12.948C1.66669 12.026 1.66669 10.6562 1.66669 7.91666C1.66669 5.17709 1.66669 3.80731 2.42332 2.88535C2.56184 2.71656 2.7166 2.56181 2.88538 2.42329C3.80734 1.66666 5.17712 1.66666 7.91669 1.66666C10.6563 1.66666 12.026 1.66666 12.948 2.42329C13.1168 2.56181 13.2715 2.71656 13.41 2.88535C13.9467 3.53926 14.1028 4.41846 14.1481 5.85191C14.1481 5.85191 14.1481 5.85191 14.1667 5.85251M5.85195 14.1481L14.1667 5.85251" stroke="currentColor" stroke-width="1.5"/>
<path d="M10.8333 15.8333L11.5277 14.1667M11.5277 14.1667L12.9166 10.8333L14.3056 14.1667M11.5277 14.1667H14.3056M15 15.8333L14.3056 14.1667" stroke="currentColor" stroke-width="1.5" stroke-linecap="round" stroke-linejoin="round"/>
</g>
<defs>
<clipPath id="clip0_8_59">
<rect width="20" height="20" fill="white"/>
</clipPath>
</defs>
</svg>
