<svg width="14" height="14" viewBox="0 0 14 14" fill="none" xmlns="http://www.w3.org/2000/svg">
<g clip-path="url(#clip0_13_82)">
<path d="M2.625 5.54169H2.33333C1.78336 5.54169 1.50837 5.54169 1.33752 5.71254C1.16666 5.8834 1.16666 6.15839 1.16666 6.70835V11.6667C1.16666 12.2167 1.16666 12.4916 1.33752 12.6625C1.50837 12.8334 1.78336 12.8334 2.33333 12.8334H2.625C3.17497 12.8334 3.44995 12.8334 3.62081 12.6625C3.79166 12.4916 3.79166 12.2167 3.79166 11.6667V6.70835C3.79166 6.15839 3.79166 5.8834 3.62081 5.71254C3.44995 5.54169 3.17497 5.54169 2.625 5.54169Z" stroke="#E5E7EB"/>
<path d="M3.79166 2.47919C3.79166 3.20406 3.20404 3.79169 2.47916 3.79169C1.75429 3.79169 1.16666 3.20406 1.16666 2.47919C1.16666 1.75431 1.75429 1.16669 2.47916 1.16669C3.20404 1.16669 3.79166 1.75431 3.79166 2.47919Z" stroke="#E5E7EB"/>
<path d="M7.19016 5.54169H6.70833C6.15836 5.54169 5.88338 5.54169 5.71252 5.71254C5.54166 5.8834 5.54166 6.15839 5.54166 6.70835V11.6667C5.54166 12.2167 5.54166 12.4916 5.71252 12.6625C5.88338 12.8334 6.15836 12.8334 6.70833 12.8334H7C7.54996 12.8334 7.82495 12.8334 7.99581 12.6625C8.16666 12.4916 8.16666 12.2167 8.16666 11.6667L8.16672 9.62508C8.16672 8.65861 8.47472 7.87508 9.38461 7.87508C9.83949 7.87508 10.2083 8.26685 10.2083 8.75008V11.3751C10.2083 11.925 10.2083 12.2 10.3792 12.3709C10.55 12.5417 10.825 12.5417 11.375 12.5417H11.6659C12.2158 12.5417 12.4907 12.5417 12.6615 12.3709C12.8324 12.2001 12.8325 11.9252 12.8326 11.3754L12.8334 8.1668C12.8334 6.7171 11.4546 5.54183 10.0898 5.54183C9.31286 5.54183 8.61974 5.92266 8.16672 6.51819C8.16666 6.15063 8.16666 5.96688 8.08686 5.83044C8.03629 5.74402 7.96431 5.67208 7.87791 5.62153C7.74147 5.54169 7.55772 5.54169 7.19016 5.54169Z" stroke="#E5E7EB" stroke-linejoin="round"/>
</g>
<defs>
<clipPath id="clip0_13_82">
<rect width="14" height="14" fill="white"/>
</clipPath>
</defs>
</svg>
