<svg width="20" height="20" viewBox="0 0 20 20" fill="none" xmlns="http://www.w3.org/2000/svg">
<g clip-path="url(#clip0_36_24840)">
<path d="M3.75002 7.91663H3.33335C2.54768 7.91663 2.15485 7.91663 1.91076 8.1607C1.66669 8.40479 1.66669 8.79763 1.66669 9.58329V16.6666C1.66669 17.4523 1.66669 17.8451 1.91076 18.0892C2.15485 18.3333 2.54768 18.3333 3.33335 18.3333H3.75002C4.5357 18.3333 4.92853 18.3333 5.17261 18.0892C5.41669 17.8451 5.41669 17.4523 5.41669 16.6666V9.58329C5.41669 8.79763 5.41669 8.40479 5.17261 8.1607C4.92853 7.91663 4.5357 7.91663 3.75002 7.91663Z" stroke="#1F2937" stroke-opacity="0.901961" stroke-width="1.5"/>
<path d="M5.41669 3.54163C5.41669 4.57716 4.57722 5.41663 3.54169 5.41663C2.50615 5.41663 1.66669 4.57716 1.66669 3.54163C1.66669 2.50609 2.50615 1.66663 3.54169 1.66663C4.57722 1.66663 5.41669 2.50609 5.41669 3.54163Z" stroke="#1F2937" stroke-opacity="0.901961" stroke-width="1.5"/>
<path d="M10.2717 7.91663H9.58335C8.79769 7.91663 8.40485 7.91663 8.16076 8.1607C7.91669 8.40479 7.91669 8.79763 7.91669 9.58329V16.6666C7.91669 17.4523 7.91669 17.8451 8.16076 18.0892C8.40485 18.3333 8.79769 18.3333 9.58335 18.3333H10C10.7857 18.3333 11.1785 18.3333 11.4226 18.0892C11.6667 17.8451 11.6667 17.4523 11.6667 16.6666L11.6668 13.75C11.6668 12.3694 12.1068 11.25 13.4066 11.25C14.0564 11.25 14.5834 11.8097 14.5834 12.5V16.25C14.5834 17.0357 14.5834 17.4285 14.8274 17.6726C15.0714 17.9167 15.4644 17.9167 16.25 17.9167H16.6656C17.4511 17.9167 17.8439 17.9167 18.0879 17.6727C18.332 17.4287 18.3321 17.036 18.3323 16.2505L18.3334 11.6668C18.3334 9.59579 16.3637 7.91683 14.414 7.91683C13.3041 7.91683 12.3139 8.46088 11.6668 9.31163C11.6667 8.78654 11.6667 8.52404 11.5527 8.32913C11.4804 8.20568 11.3776 8.1029 11.2542 8.03068C11.0593 7.91663 10.7968 7.91663 10.2717 7.91663Z" stroke="#1F2937" stroke-opacity="0.901961" stroke-width="1.5" stroke-linejoin="round"/>
</g>
<defs>
<clipPath id="clip0_36_24840">
<rect width="20" height="20" fill="white"/>
</clipPath>
</defs>
</svg>
