<svg width="48" height="48" viewBox="0 0 48 48" fill="none" xmlns="http://www.w3.org/2000/svg">
<path d="M44 24H43.982M36.018 24H36" stroke="currentColor" stroke-width="3" stroke-linecap="round" stroke-linejoin="round"/>
<path d="M21.0239 15H21.0059" stroke="currentColor" stroke-width="3" stroke-linecap="round" stroke-linejoin="round"/>
<path d="M4 24C4 33.9412 11.8855 42 21.6128 42C26.5466 42 31.0066 39.9268 34.204 36.5862C35.4852 35.2476 36.1258 34.5784 35.9794 33.4836C35.8332 32.389 34.9056 31.8416 33.05 30.747L31.5342 29.8528C27.1274 27.2532 24.924 25.9534 24.924 24C24.924 22.0466 27.1274 20.7468 31.5342 18.1472L33.05 17.2529C34.9056 16.1584 35.8332 15.6111 35.9794 14.5163C36.1258 13.4216 35.4852 12.7523 34.204 11.4139C31.0066 8.0733 26.5466 6 21.6128 6C11.8855 6 4 14.0589 4 24Z" stroke="currentColor" stroke-width="3"/>
</svg>
