<svg width="48" height="48" viewBox="0 0 48 48" fill="none" xmlns="http://www.w3.org/2000/svg">
<path d="M18 14H33.5C37.7134 14 39.82 14 41.3334 15.0112C41.9886 15.4489 42.551 16.0114 42.9888 16.6666C44 18.1799 44 20.2866 44 24.5C44 31.5224 44 35.0334 42.3146 37.5558C41.5852 38.6476 40.6476 39.5852 39.5558 40.3146C37.0334 42 33.5224 42 26.5 42H24C14.5719 42 9.85786 42 6.92894 39.071C4 36.1422 4 31.428 4 22V15.8885C4 12.2556 4 10.4391 4.76064 9.07612C5.30284 8.10454 6.10454 7.30284 7.07612 6.76064C8.43912 6 10.2556 6 13.8885 6C16.216 6 17.3798 6 18.3985 6.38202C20.7244 7.25424 21.6836 9.36716 22.7332 11.4663L24 14" stroke="currentColor" stroke-width="2" stroke-linecap="round"/>
<path d="M31 24L32.8398 25.5858C33.6132 26.2524 34 26.5858 34 27C34 27.4142 33.6132 27.7476 32.8398 28.4142L31 30" stroke="currentColor" stroke-width="2" stroke-linecap="round" stroke-linejoin="round"/>
<path d="M17 24L15.1602 25.5858C14.3867 26.2524 14 26.5858 14 27C14 27.4142 14.3867 27.7476 15.1602 28.4142L17 30" stroke="currentColor" stroke-width="2" stroke-linecap="round" stroke-linejoin="round"/>
<path d="M26 22L22 32" stroke="currentColor" stroke-width="2" stroke-linecap="round" stroke-linejoin="round"/>
</svg>
