<svg width="12" height="10" viewBox="0 0 12 10" fill="none" xmlns="http://www.w3.org/2000/svg">
<path d="M9.53888 3.25958C9.34071 3.1893 9.13354 3.11901 8.91736 3.05751C8.97141 2.84665 9.01645 2.63578 9.05247 2.43371C9.24163 1.27396 9.03446 0.456869 8.45798 0.140575C8.28684 0.0439297 8.09769 0 7.88151 0C7.25099 0 6.44933 0.456869 5.63866 1.22125C4.82799 0.456869 4.02632 0 3.3958 0C3.17963 0 2.99047 0.0439297 2.81933 0.140575C2.24285 0.465655 2.03568 1.28275 2.22484 2.43371C2.26087 2.63578 2.3059 2.84665 2.35995 3.05751C2.14377 3.11901 1.9366 3.18051 1.73844 3.25958C0.612506 3.68131 0 4.26118 0 4.91134C0 5.5615 0.621513 6.14137 1.73844 6.5631C1.9366 6.63339 2.14377 6.70367 2.35995 6.76518C2.3059 6.97604 2.26087 7.1869 2.22484 7.38898C2.03568 8.54872 2.24285 9.36582 2.81933 9.68211C2.99047 9.77876 3.17963 9.82268 3.3958 9.82268C4.03533 9.82268 4.83699 9.36582 5.63866 8.60144C6.44933 9.36582 7.25099 9.82268 7.88151 9.82268C8.09769 9.82268 8.28684 9.77876 8.45798 9.68211C9.03446 9.35703 9.24163 8.53994 9.05247 7.38898C9.01645 7.1869 8.97141 6.97604 8.91736 6.76518C9.13354 6.70367 9.34071 6.64217 9.53888 6.5631C10.6648 6.14137 11.2773 5.5615 11.2773 4.91134C11.2773 4.26118 10.6648 3.68131 9.53888 3.25958ZM8.20578 0.579872C8.57508 0.790735 8.70119 1.44089 8.54806 2.36342C8.52104 2.54792 8.476 2.74121 8.42195 2.94329C7.95357 2.83786 7.45816 2.76757 6.93573 2.72364C6.62947 2.30192 6.31421 1.92412 5.99895 1.58147C6.6655 0.940096 7.34106 0.500799 7.89052 0.500799C8.00761 0.500799 8.1157 0.527157 8.20578 0.579872ZM7.19694 5.78994C7.03481 6.07109 6.84565 6.35224 6.64749 6.63339C6.31421 6.65974 5.98094 6.66853 5.63866 6.66853C5.28737 6.66853 4.95409 6.65974 4.62982 6.63339C4.43166 6.35224 4.25151 6.07109 4.08938 5.78994C3.91824 5.5 3.7561 5.20128 3.61198 4.91134C3.7561 4.62141 3.91824 4.32268 4.08938 4.03275C4.25151 3.7516 4.44067 3.47045 4.63883 3.1893C4.97211 3.16294 5.30538 3.15415 5.64766 3.15415C5.99895 3.15415 6.33223 3.16294 6.6565 3.1893C6.85466 3.47045 7.03481 3.7516 7.19694 4.03275C7.36808 4.32268 7.53022 4.62141 7.67434 4.91134C7.52121 5.20128 7.36808 5.49121 7.19694 5.78994ZM7.94456 5.5C8.07967 5.80751 8.18776 6.10623 8.28684 6.40495C7.98059 6.47524 7.65632 6.52796 7.31404 6.57189C7.42213 6.40495 7.53922 6.22923 7.63831 6.04473C7.7464 5.86022 7.84548 5.67572 7.94456 5.5ZM5.63866 7.88099C5.42248 7.65256 5.21531 7.40655 5.01714 7.15176C5.22431 7.16054 5.43148 7.16933 5.63866 7.16933C5.84583 7.16933 6.053 7.16054 6.26017 7.15176C6.06201 7.40655 5.85483 7.65256 5.63866 7.88099ZM3.96327 6.5631C3.62099 6.51917 3.29672 6.46645 2.99047 6.39617C3.08955 6.10623 3.19764 5.79872 3.33275 5.49121C3.43183 5.66693 3.53092 5.85144 3.639 6.02716C3.74709 6.22045 3.85518 6.38738 3.96327 6.5631ZM3.33275 4.32268C3.19764 4.01518 3.08955 3.71645 2.99047 3.41773C3.29672 3.34744 3.62099 3.29473 3.96327 3.2508C3.85518 3.41773 3.73809 3.59345 3.639 3.77796C3.53092 3.96246 3.43183 4.14697 3.33275 4.32268ZM5.63866 1.94169C5.85483 2.17013 6.06201 2.41613 6.26017 2.67093C6.053 2.66214 5.84583 2.65335 5.63866 2.65335C5.43148 2.65335 5.22431 2.66214 5.01714 2.67093C5.21531 2.41613 5.42248 2.17013 5.63866 1.94169ZM7.63831 3.78674L7.31404 3.25958C7.65632 3.30351 7.98059 3.35623 8.28684 3.42652C8.18776 3.71645 8.07967 4.02396 7.94456 4.33147C7.84548 4.14697 7.7464 3.96246 7.63831 3.78674ZM2.72925 2.36342C2.57613 1.44089 2.70223 0.790735 3.07154 0.579872C3.16161 0.527157 3.2697 0.500799 3.3868 0.500799C3.92724 0.500799 4.6028 0.93131 5.27836 1.58147C4.9631 1.91534 4.64784 2.30192 4.34158 2.72364C3.81915 2.76757 3.32374 2.84665 2.85536 2.94329C2.80131 2.74121 2.76528 2.54792 2.72925 2.36342ZM0.504416 4.91134C0.504416 4.4984 1.01784 4.05911 1.91858 3.73403C2.09873 3.66374 2.2969 3.60224 2.49506 3.54952C2.63918 3.98882 2.81933 4.45447 3.03551 4.92013C2.81933 5.38578 2.63017 5.84265 2.49506 6.28195C1.25203 5.93051 0.504416 5.40336 0.504416 4.91134ZM3.07154 9.24281C2.70223 9.03195 2.57613 8.38179 2.72925 7.45927C2.75628 7.27476 2.80131 7.08147 2.85536 6.87939C3.32374 6.98483 3.81915 7.05511 4.34158 7.09904C4.64784 7.52077 4.9631 7.89856 5.27836 8.24121C4.61181 8.88259 3.93625 9.32189 3.3868 9.32189C3.2697 9.32189 3.16161 9.29553 3.07154 9.24281ZM8.54806 7.45927C8.70119 8.38179 8.57508 9.03195 8.20578 9.24281C8.1157 9.29553 8.00761 9.32189 7.89052 9.32189C7.35007 9.32189 6.67451 8.89137 5.99895 8.24121C6.31421 7.90735 6.62947 7.52077 6.93573 7.09904C7.45816 7.05511 7.95357 6.97604 8.42195 6.87939C8.476 7.08147 8.51203 7.27476 8.54806 7.45927ZM9.35873 6.08866C9.17858 6.15895 8.98042 6.22045 8.78225 6.27316C8.63813 5.83387 8.45798 5.36821 8.24181 4.90256C8.45798 4.4369 8.64714 3.98003 8.78225 3.54074C10.0253 3.89217 10.7729 4.41933 10.7729 4.91134C10.7729 5.32428 10.2505 5.76358 9.35873 6.08866Z" fill="#61DAFB"/>
</svg>
