<svg width="12" height="13" viewBox="0 0 12 13" fill="none" xmlns="http://www.w3.org/2000/svg">
<path d="M10.9174 1.30149C10.7493 1.70468 10.5342 2.08658 10.2764 2.43924C9.14709 1.31057 7.61585 0.676463 6.01922 0.67627C2.71725 0.67627 5.57881e-09 3.39577 5.57881e-09 6.70139C-3.51068e-05 7.51768 0.165675 8.32547 0.487088 9.07582C0.808501 9.82616 1.27892 10.5034 1.86984 11.0666L2.09184 11.2635C3.17681 12.1782 4.55003 12.6803 5.96916 12.6811C9.10856 12.6811 11.7476 10.2211 11.9711 7.08586C12.1353 5.55108 11.6851 3.60989 10.9174 1.30149ZM2.72503 11.1009C2.6767 11.1604 2.6157 11.2085 2.54646 11.2414C2.47723 11.2744 2.4015 11.2916 2.32481 11.2916C2.04188 11.2916 1.81041 11.0587 1.81041 10.7758C1.81041 10.4929 2.04338 10.2601 2.32481 10.2601C2.442 10.2601 2.55778 10.3006 2.64844 10.3757C2.86884 10.5539 2.90325 10.8805 2.72503 11.1009ZM10.8924 9.29733C9.40716 11.2775 6.23494 10.6101 4.20094 10.7055C4.20094 10.7055 3.83981 10.7274 3.47709 10.7867C3.47709 10.7867 3.61303 10.7289 3.78975 10.6617C5.21719 10.1647 5.89256 10.0678 6.76022 9.62236C8.394 8.79089 10.009 6.97168 10.3452 5.07896C9.723 6.89977 7.83741 8.46427 6.11925 9.10036C4.94203 9.53489 2.81569 9.95686 2.81569 9.95686L2.72972 9.91149C1.28203 9.20668 1.23816 6.06989 3.86944 5.05711C5.02172 4.61321 6.12394 4.85705 7.36847 4.56005C8.69738 4.24439 10.2342 3.24718 10.8595 1.94686C11.5599 4.02718 12.4027 7.28424 10.8923 9.29733H10.8924Z" fill="#77BC1F"/>
</svg>
