<svg width="11" height="12" viewBox="0 0 11 12" fill="none" xmlns="http://www.w3.org/2000/svg">
<path d="M10.8672 11.4183L10.6391 11.1921C10.4228 10.8987 10.1447 10.641 9.85275 10.427C9.61996 10.2562 9.09731 10.0255 9.00015 9.74878L8.98227 9.73139C9.14738 9.71232 9.34014 9.65136 9.49252 9.60955C9.74844 9.5395 9.95969 9.55759 10.224 9.48789C10.3431 9.45313 10.4768 9.41828 10.5641 9.38352V9.314C10.4768 9.17397 10.3524 8.98858 10.2067 8.86184C9.82563 8.53028 9.41812 8.19898 8.98986 7.92268C8.75235 7.76955 8.46294 7.66999 8.2113 7.54013C8.12661 7.49637 7.97999 7.47364 7.92399 7.40091C7.79167 7.22871 7.72093 7.01034 7.61888 6.80971C7.40527 6.38928 7.19594 5.93017 7.00666 5.48782C6.87757 5.1862 6.79358 4.88886 6.63256 4.61826C5.85977 3.31991 5.02809 2.53636 3.73963 1.7661C3.46532 1.60228 3.13527 1.53766 2.78637 1.45299C2.59937 1.44149 2.4121 1.42981 2.22492 1.41814C2.11057 1.36947 1.99168 1.22659 1.88457 1.15725C1.45753 0.881661 0.362617 0.28226 0.0464333 1.07035C-0.15322 1.56778 0.344736 2.05301 0.522846 2.30516C0.648011 2.48181 0.808066 2.68013 0.897295 2.87898C0.95617 3.00973 0.966201 3.14084 1.01653 3.27908C1.14021 3.61974 1.24776 3.99034 1.4079 4.30506C1.48875 4.46443 1.5779 4.63217 1.68021 4.7746C1.74284 4.86204 1.85029 4.90054 1.8673 5.03548C1.76229 5.18576 1.75627 5.4191 1.69722 5.60948C1.43119 6.46647 1.53167 7.53175 1.9185 8.166C2.03713 8.36084 2.31676 8.77841 2.70133 8.61816C3.03766 8.47822 2.98271 8.04434 3.07892 7.66161C3.10064 7.57498 3.06278 7.51116 3.15001 7.45296V7.47034C3.23925 7.68192 3.33472 7.8907 3.43627 8.09639C3.66305 8.46958 4.03715 8.85952 4.37811 9.12264C4.55491 9.25909 4.72002 9.49493 4.89447 9.57479V9.56579H4.91375C4.86952 9.47666 4.80018 9.46178 4.74366 9.405C4.61047 9.27166 4.46228 9.10356 4.35229 8.9507C4.04212 8.52047 3.76807 8.04853 3.51835 7.55831C3.39903 7.32426 3.29532 7.06551 3.19484 6.82736C3.1562 6.73555 3.15664 6.59633 3.07587 6.54882C2.9657 6.72334 2.80356 6.86434 2.71834 7.0705C2.58218 7.39993 2.56465 7.80173 2.51415 8.21823C2.48423 8.22911 2.49758 8.22162 2.48005 8.23552C2.24297 8.17714 2.15976 7.92785 2.07158 7.71384C1.84872 7.17282 1.80738 6.30175 2.00346 5.67909C2.05422 5.51786 2.28353 5.01053 2.19064 4.86159C2.14633 4.71319 2.00014 4.62718 1.91842 4.51371C1.81715 4.37342 1.71615 4.18875 1.64602 4.02671C1.46363 3.60503 1.37859 3.13148 1.18653 2.70509C1.09468 2.50124 0.939511 2.29491 0.812078 2.1138C0.671038 1.91299 0.51299 1.76512 0.403525 1.52242C0.364711 1.43614 0.311853 1.29799 0.369508 1.2093C0.387825 1.1495 0.41373 1.12454 0.471646 1.10502C0.57047 1.02721 0.845223 1.13087 0.948146 1.17445C1.22107 1.29032 1.44889 1.39728 1.68012 1.55379C1.79098 1.62902 1.90333 1.72225 2.03748 1.81138H2.19064C2.43024 1.81138 2.69863 1.83206 2.92253 1.90158C3.31809 2.02449 3.67265 2.21728 3.99468 2.42504C4.97559 3.05804 5.7776 3.95986 6.32632 5.03459C6.41459 5.20768 6.4528 5.3732 6.53051 5.55672C6.68734 5.92687 6.88499 6.30791 7.04103 6.66986C7.19681 7.03111 7.34858 7.39556 7.56873 7.69611C7.68447 7.85405 8.13141 7.9389 8.33455 8.02669C8.47698 8.0881 8.71031 8.15228 8.84515 8.23526C9.10272 8.39409 9.35227 8.58322 9.59405 8.75711C9.71477 8.84393 10.086 9.03466 10.1046 9.19189C9.50595 9.17513 9.04882 9.23218 8.65797 9.40054C8.54694 9.44841 8.3697 9.44974 8.35156 9.59191C8.41261 9.65724 8.42212 9.75493 8.47062 9.83532C8.56386 9.98952 8.72147 10.1965 8.86207 10.3049C9.01576 10.4234 9.17398 10.5501 9.33866 10.6526C9.63164 10.8351 9.95856 10.9394 10.2406 11.1222C10.4069 11.23 10.5859 11.3658 10.7478 11.4873C10.8281 11.5475 10.8256 11.641 11 11.6787V11.6614C10.9129 11.5906 10.9175 11.4927 10.8672 11.4183ZM2.49705 2.56604C2.37224 2.56364 2.27778 2.58004 2.19055 2.60071V2.61373H2.20782C2.2674 2.70286 2.3725 2.8214 2.44603 2.92907L2.61629 3.29522L2.63312 3.27855C2.73857 3.20252 2.7869 3.08148 2.78629 2.89609C2.74416 2.85072 2.73779 2.79395 2.70133 2.73976C2.65266 2.66765 2.55837 2.62674 2.49705 2.56604Z" fill="#00618A"/>
</svg>
