<svg width="13" height="9" viewBox="0 0 13 9" fill="none" xmlns="http://www.w3.org/2000/svg">
<path d="M6.5 0.678711C4.76663 0.678711 3.68367 1.5673 3.25 3.3452C3.8998 2.45651 4.65837 2.12327 5.5248 2.34546C6.01951 2.47193 6.37305 2.83987 6.76457 3.24759C7.40177 3.91086 8.13932 4.67871 9.75 4.67871C11.4833 4.67871 12.5663 3.79002 13 2.0117C12.3501 2.90091 11.5916 3.23416 10.7251 3.01196C10.2305 2.88539 9.87736 2.51756 9.48533 2.10983C8.84853 1.44656 8.11119 0.678711 6.5 0.678711ZM3.25 4.67871C1.51673 4.67871 0.433672 5.5674 0 7.34572C0.649797 6.45651 1.40827 6.12327 2.2748 6.34546C2.76951 6.47203 3.12305 6.83987 3.51457 7.2476C4.15177 7.91086 4.88932 8.67871 6.5 8.67871C8.23326 8.67871 9.31633 7.79012 9.75 6.01222C9.1001 6.90091 8.34163 7.23416 7.4751 7.01196C6.98049 6.88549 6.62736 6.51756 6.23533 6.10983C5.59853 5.44656 4.86119 4.67871 3.25 4.67871Z" fill="#38B2AC"/>
</svg>
