<svg width="20" height="20" viewBox="0 0 20 20" fill="none" xmlns="http://www.w3.org/2000/svg">
<path d="M11.6667 17.5H13.3334M11.6667 17.5C10.9764 17.5 10.4167 16.9403 10.4167 16.25V14.1667H10M11.6667 17.5H8.33335M10 14.1667H9.58335V16.25C9.58335 16.9403 9.02369 17.5 8.33335 17.5M10 14.1667V17.5M8.33335 17.5H6.66669" stroke="currentColor" stroke-width="1.5" stroke-linecap="round" stroke-linejoin="round"/>
<path d="M13.3334 2.5H6.66669C4.30966 2.5 3.13115 2.5 2.39892 3.23223C1.66669 3.96447 1.66669 5.14298 1.66669 7.5V9.16667C1.66669 11.5237 1.66669 12.7022 2.39892 13.4344C3.13115 14.1667 4.30966 14.1667 6.66669 14.1667H13.3334C15.6904 14.1667 16.8689 14.1667 17.6011 13.4344C18.3334 12.7022 18.3334 11.5237 18.3334 9.16667V7.5C18.3334 5.14298 18.3334 3.96447 17.6011 3.23223C16.8689 2.5 15.6904 2.5 13.3334 2.5Z" stroke="currentColor" stroke-width="1.5" stroke-linecap="round" stroke-linejoin="round"/>
</svg>
